{
    "asset" : {
        "generator" : "Khronos glTF Blender I/O v1.6.16",
        "version" : "2.0"
    },
    "scene" : 0,
    "scenes" : [
        {
            "name" : "Scene",
            "nodes" : [
                9
            ]
        }
    ],
    "nodes" : [
        {
            "mesh" : 0,
            "name" : "Object_893"
        },
        {
            "children" : [
                0
            ],
            "name" : "NaveN9_462",
            "scale" : [
                0.010000000707805157,
                0.010000000707805157,
                0.010000000707805157
            ],
            "translation" : [
                0,
                0,
                -0.010000000707805157
            ]
        },
        {
            "children" : [
                1
            ],
            "name" : "LowerWallsNave1300_408"
        },
        {
            "children" : [
                2
            ],
            "name" : "Nave1300_330"
        },
        {
            "children" : [
                3
            ],
            "name" : "Walls 1_305"
        },
        {
            "children" : [
                4
            ],
            "name" : "1300_304"
        },
        {
            "children" : [
                5
            ],
            "name" : "Church_0",
            "translation" : [
                0,
                0.07500000298023224,
                0
            ]
        },
        {
            "children" : [
                6
            ],
            "name" : "GLTF_SceneRootNode",
            "rotation" : [
                0.7071068286895752,
                0,
                0,
                0.7071068286895752
            ]
        },
        {
            "children" : [
                7
            ],
            "name" : "root"
        },
        {
            "children" : [
                8
            ],
            "name" : "Sketchfab_model",
            "rotation" : [
                -0.7071068286895752,
                0,
                0,
                0.7071068286895752
            ]
        }
    ],
    "materials" : [
        {
            "name" : "Boards1virtual",
            "pbrMetallicRoughness" : {
                "baseColorTexture" : {
                    "index" : 0
                },
                "metallicFactor" : 0
            }
        }
    ],
    "meshes" : [
        {
            "name" : "Object_427",
            "primitives" : [
                {
                    "attributes" : {
                        "POSITION" : 0,
                        "NORMAL" : 1,
                        "TEXCOORD_0" : 2,
                        "TEXCOORD_1" : 3
                    },
                    "indices" : 4,
                    "material" : 0
                }
            ]
        }
    ],
    "textures" : [
        {
            "sampler" : 0,
            "source" : 0
        }
    ],
    "images" : [
        {
            "bufferView" : 5,
            "mimeType" : "image/jpeg",
            "name" : "Boards1virtual_baseColor"
        }
    ],
    "accessors" : [
        {
            "bufferView" : 0,
            "componentType" : 5126,
            "count" : 439,
            "max" : [
                567.860107421875,
                222.01292419433594,
                861.9429321289062
            ],
            "min" : [
                -532.659423828125,
                204.54464721679688,
                841.1851806640625
            ],
            "type" : "VEC3"
        },
        {
            "bufferView" : 1,
            "componentType" : 5126,
            "count" : 439,
            "type" : "VEC3"
        },
        {
            "bufferView" : 2,
            "componentType" : 5126,
            "count" : 439,
            "type" : "VEC2"
        },
        {
            "bufferView" : 3,
            "componentType" : 5126,
            "count" : 439,
            "type" : "VEC2"
        },
        {
            "bufferView" : 4,
            "componentType" : 5123,
            "count" : 900,
            "type" : "SCALAR"
        }
    ],
    "bufferViews" : [
        {
            "buffer" : 0,
            "byteLength" : 5268,
            "byteOffset" : 0
        },
        {
            "buffer" : 0,
            "byteLength" : 5268,
            "byteOffset" : 5268
        },
        {
            "buffer" : 0,
            "byteLength" : 3512,
            "byteOffset" : 10536
        },
        {
            "buffer" : 0,
            "byteLength" : 3512,
            "byteOffset" : 14048
        },
        {
            "buffer" : 0,
            "byteLength" : 1800,
            "byteOffset" : 17560
        },
        {
            "buffer" : 0,
            "byteLength" : 88049,
            "byteOffset" : 19360
        }
    ],
    "samplers" : [
        {
            "magFilter" : 9729,
            "minFilter" : 9987
        }
    ],
    "buffers" : [
        {
            "byteLength" : 107412,
            "uri" : "data:application/octet-stream;base64,"
        }
    ]
}
